<svg width="90" height="90" viewBox="0 0 90 90" fill="none" xmlns="http://www.w3.org/2000/svg">
<circle cx="45" cy="45" r="45" transform="rotate(-90 45 45)" fill="url(#paint0_linear_2_34)"/>
<path d="M20 32C20 30.8954 20.8954 30 22 30H68C69.1046 30 70 30.8954 70 32V36C70 37.1046 69.1046 38 68 38H22C20.8954 38 20 37.1046 20 36V32Z" fill="#D6D6D6"/>
<path d="M25 34C25 32.8954 25.8954 32 27 32H43C44.1046 32 45 32.8954 45 34V34C45 35.1046 44.1046 36 43 36H27C25.8954 36 25 35.1046 25 34V34Z" fill="#45868A"/>
<path d="M48 34C48 32.8954 48.8954 32 50 32V32C51.1046 32 52 32.8954 52 34V34C52 35.1046 51.1046 36 50 36V36C48.8954 36 48 35.1046 48 34V34Z" fill="#45868A"/>
<path d="M20 58C20 56.8954 20.8954 56 22 56H68C69.1046 56 70 56.8954 70 58V62C70 63.1046 69.1046 64 68 64H22C20.8954 64 20 63.1046 20 62V58Z" fill="#D6D6D6"/>
<path d="M25 60C25 58.8954 25.8954 58 27 58H43C44.1046 58 45 58.8954 45 60V60C45 61.1046 44.1046 62 43 62H27C25.8954 62 25 61.1046 25 60V60Z" fill="#45868A"/>
<path d="M48 60C48 58.8954 48.8954 58 50 58V58C51.1046 58 52 58.8954 52 60V60C52 61.1046 51.1046 62 50 62V62C48.8954 62 48 61.1046 48 60V60Z" fill="#45868A"/>
<path d="M20 45C20 43.8954 20.8954 43 22 43H68C69.1046 43 70 43.8954 70 45V49C70 50.1046 69.1046 51 68 51H22C20.8954 51 20 50.1046 20 49V45Z" fill="#D6D6D6"/>
<path d="M25 47C25 45.8954 25.8954 45 27 45H43C44.1046 45 45 45.8954 45 47V47C45 48.1046 44.1046 49 43 49H27C25.8954 49 25 48.1046 25 47V47Z" fill="#45868A"/>
<path d="M48 47C48 45.8954 48.8954 45 50 45V45C51.1046 45 52 45.8954 52 47V47C52 48.1046 51.1046 49 50 49V49C48.8954 49 48 48.1046 48 47V47Z" fill="#45868A"/>
<defs>
<linearGradient id="paint0_linear_2_34" x1="45" y1="0" x2="45" y2="90" gradientUnits="userSpaceOnUse">
<stop offset="0.53" stop-color="#76ABAE"/>
<stop offset="1" stop-color="#61888A"/>
</linearGradient>
</defs>
</svg>
